<svg xmlns="http://www.w3.org/2000/svg"  viewBox="0 0 50 50" width="50px" height="50px"><path d="M 25 2 C 12.308594 2 2 12.308594 2 25 C 2 37.691406 12.308594 48 25 48 C 37.691406 48 48 37.691406 48 25 C 48 12.308594 37.691406 2 25 2 Z M 25 4 C 36.578125 4 45.949219 13.339844 46 24.90625 C 45.984375 24.796875 45.953125 24.691406 45.90625 24.59375 C 42.246094 16.578125 34.257813 11 25 11 C 15.742188 11 7.753906 16.578125 4.09375 24.59375 C 4.046875 24.683594 4.015625 24.777344 4 24.875 C 4.066406 13.324219 13.433594 4 25 4 Z M 25 13 C 33.289063 13 40.40625 17.898438 43.84375 25 C 40.40625 32.101563 33.289063 37 25 37 C 16.710938 37 9.59375 32.101563 6.15625 25 C 9.59375 17.898438 16.710938 13 25 13 Z M 25 14 C 18.9375 14 14 18.9375 14 25 C 14 31.0625 18.9375 36 25 36 C 31.0625 36 36 31.0625 36 25 C 36 18.9375 31.0625 14 25 14 Z M 25 16 C 29.984375 16 34 20.015625 34 25 C 34 29.984375 29.984375 34 25 34 C 20.015625 34 16 29.984375 16 25 C 16 20.015625 20.015625 16 25 16 Z M 4 25.09375 C 4.015625 25.203125 4.046875 25.308594 4.09375 25.40625 C 7.753906 33.421875 15.742188 39 25 39 C 34.257813 39 42.246094 33.421875 45.90625 25.40625 C 45.953125 25.316406 45.984375 25.222656 46 25.125 C 45.933594 36.675781 36.566406 46 25 46 C 13.421875 46 4.050781 36.660156 4 25.09375 Z"/></svg>